<svg xmlns="http://www.w3.org/2000/svg" viewBox="0 0 48 48"><linearGradient id="a" x1="9.993" x2="40.615" y1="9.993" y2="40.615" gradientUnits="userSpaceOnUse"><stop offset="0" stop-color="#fd5"/><stop offset=".5" stop-color="#ff543e"/><stop offset="1" stop-color="#c837ab"/></linearGradient><path fill="url(#a)" d="M34.5 3h-21C7.6 3 3 7.6 3 13.5v21C3 40.4 7.6 45 13.5 45h21c5.9 0 10.5-4.6 10.5-10.5v-21C45 7.6 40.4 3 34.5 3z"/><path fill="#fff" d="M24 14.6c-5.2 0-9.4 4.2-9.4 9.4s4.2 9.4 9.4 9.4 9.4-4.2 9.4-9.4-4.2-9.4-9.4-9.4zm0 15.5c-3.4 0-6.1-2.7-6.1-6.1s2.7-6.1 6.1-6.1 6.1 2.7 6.1 6.1-2.7 6.1-6.1 6.1zm10.2-15.7c0 1.2-1 2.2-2.2 2.2s-2.2-1-2.2-2.2 1-2.2 2.2-2.2 2.2 1 2.2 2.2zm6.4 2.2c-.1-2.1-.6-3.9-2.1-5.4-1.5-1.5-3.3-2-5.4-2.1-2.1-.1-8.4-.1-10.5 0-2.1.1-3.9.6-5.4 2.1-1.5 1.5-2 3.3-2.1 5.4-.1 2.1-.1 8.4 0 10.5.1 2.1.6 3.9 2.1 5.4 1.5 1.5 3.3 2 5.4 2.1 2.1.1 8.4.1 10.5 0 2.1-.1 3.9-.6 5.4-2.1 1.5-1.5 2-3.3 2.1-5.4.1-2.1.1-8.4 0-10.5z"/></svg>
